<?xml version="1.0" encoding="utf-8"?>
<!-- Generator: Adobe Illustrator 26.3.1, SVG Export Plug-In . SVG Version: 6.00 Build 0)  -->
<svg version="1.1" id="Layer_1" xmlns="http://www.w3.org/2000/svg" xmlns:xlink="http://www.w3.org/1999/xlink" x="0px" y="0px"
	 viewBox="0 0 2000 2000" style="enable-background:new 0 0 2000 2000;" xml:space="preserve">
<style type="text/css">
	
		.st0{fill:url(#SVGID_1_);stroke:url(#SVGID_00000040544709957664808220000014984381370526260626_);stroke-width:0.75;stroke-miterlimit:10;}
	
		.st1{fill:url(#SVGID_00000113337537195378209920000016136723927586637701_);stroke:url(#SVGID_00000113336429837406127890000002544858040933283481_);stroke-width:0.75;stroke-miterlimit:10;}
	.st2{stroke:#FFFFFF;stroke-width:3;stroke-miterlimit:10;}
	.st3{fill:#FFFFFF;}
</style>
<g>
	<g>
		<g>
			<path d="M1004.7,1589.2l-4.7,1.6l-4.7-1.6c-311.5-113.6-456.2-416.9-430.1-901.7c0.7-13.9,1.3-24.2,1.3-30.7V512l132.9-49.1
				c194-71.6,407.2-71.6,601.2,0l132.8,49.1v144.8c0,6.5,0.6,16.8,1.4,30.7C1460.9,1172.3,1316.3,1475.5,1004.7,1589.2z"/>
		</g>
		<linearGradient id="SVGID_1_" gradientUnits="userSpaceOnUse" x1="543.8038" y1="681.849" x2="544.1454" y2="681.849">
			<stop  offset="0" style="stop-color:#EAC259"/>
			<stop  offset="1.058440e-02" style="stop-color:#B98B42"/>
			<stop  offset="3.433857e-02" style="stop-color:#5E2A13"/>
			<stop  offset="3.550710e-02" style="stop-color:#5A2611"/>
			<stop  offset="4.028317e-02" style="stop-color:#602C14"/>
			<stop  offset="4.765279e-02" style="stop-color:#703E1E"/>
			<stop  offset="5.669554e-02" style="stop-color:#8D5D2D"/>
			<stop  offset="6.696689e-02" style="stop-color:#BC8F44"/>
			<stop  offset="7.422220e-02" style="stop-color:#EAC259"/>
			<stop  offset="7.990733e-02" style="stop-color:#ECC762"/>
			<stop  offset="8.943832e-02" style="stop-color:#F1D479"/>
			<stop  offset="0.1016" style="stop-color:#FAE99D"/>
			<stop  offset="0.1063" style="stop-color:#FFF5AE"/>
			<stop  offset="0.1401" style="stop-color:#F9E494"/>
			<stop  offset="0.2127" style="stop-color:#ECC056"/>
			<stop  offset="0.2428" style="stop-color:#E7B139"/>
			<stop  offset="0.2612" style="stop-color:#E9B63F"/>
			<stop  offset="0.2892" style="stop-color:#EEC554"/>
			<stop  offset="0.3148" style="stop-color:#F5D66C"/>
			<stop  offset="0.5941" style="stop-color:#F8DA62"/>
			<stop  offset="0.613" style="stop-color:#F6D65D"/>
			<stop  offset="0.6356" style="stop-color:#F2CA51"/>
			<stop  offset="0.6599" style="stop-color:#ECB83F"/>
			<stop  offset="0.6854" style="stop-color:#E39E29"/>
			<stop  offset="0.6907" style="stop-color:#E19926"/>
			<stop  offset="0.6989" style="stop-color:#E3A12F"/>
			<stop  offset="0.714" style="stop-color:#E9B84D"/>
			<stop  offset="0.7245" style="stop-color:#EDCB69"/>
			<stop  offset="0.8259" style="stop-color:#E6BC4C"/>
			<stop  offset="0.8298" style="stop-color:#E0B045"/>
			<stop  offset="0.8407" style="stop-color:#D59436"/>
			<stop  offset="0.8511" style="stop-color:#CE832E"/>
			<stop  offset="0.8606" style="stop-color:#CA792A"/>
			<stop  offset="0.8684" style="stop-color:#C87529"/>
			<stop  offset="0.8905" style="stop-color:#935226"/>
			<stop  offset="0.9139" style="stop-color:#66331C"/>
			<stop  offset="0.9313" style="stop-color:#4E2113"/>
			<stop  offset="0.9406" style="stop-color:#45190E"/>
			<stop  offset="0.9764" style="stop-color:#E9C055"/>
			<stop  offset="1" style="stop-color:#FDF2A6"/>
		</linearGradient>
		
			<linearGradient id="SVGID_00000147214539790515419380000011386393499338056083_" gradientUnits="userSpaceOnUse" x1="543.4288" y1="682.1743" x2="544.5204" y2="682.1743">
			<stop  offset="0" style="stop-color:#EAC259"/>
			<stop  offset="1.058440e-02" style="stop-color:#B98B42"/>
			<stop  offset="3.433857e-02" style="stop-color:#5E2A13"/>
			<stop  offset="3.550710e-02" style="stop-color:#5A2611"/>
			<stop  offset="4.028317e-02" style="stop-color:#602C14"/>
			<stop  offset="4.765279e-02" style="stop-color:#703E1E"/>
			<stop  offset="5.669554e-02" style="stop-color:#8D5D2D"/>
			<stop  offset="6.696689e-02" style="stop-color:#BC8F44"/>
			<stop  offset="7.422220e-02" style="stop-color:#EAC259"/>
			<stop  offset="7.990733e-02" style="stop-color:#ECC762"/>
			<stop  offset="8.943832e-02" style="stop-color:#F1D479"/>
			<stop  offset="0.1016" style="stop-color:#FAE99D"/>
			<stop  offset="0.1063" style="stop-color:#FFF5AE"/>
			<stop  offset="0.1401" style="stop-color:#F9E494"/>
			<stop  offset="0.2127" style="stop-color:#ECC056"/>
			<stop  offset="0.2428" style="stop-color:#E7B139"/>
			<stop  offset="0.2612" style="stop-color:#E9B63F"/>
			<stop  offset="0.2892" style="stop-color:#EEC554"/>
			<stop  offset="0.3148" style="stop-color:#F5D66C"/>
			<stop  offset="0.3309" style="stop-color:#F6D97A"/>
			<stop  offset="0.3627" style="stop-color:#F8E29B"/>
			<stop  offset="0.4065" style="stop-color:#FCF0D2"/>
			<stop  offset="0.4356" style="stop-color:#FFFFFF"/>
			<stop  offset="0.4486" style="stop-color:#FEF9EB"/>
			<stop  offset="0.5006" style="stop-color:#FBEAB1"/>
			<stop  offset="0.5439" style="stop-color:#F9E188"/>
			<stop  offset="0.5763" style="stop-color:#F8DC6D"/>
			<stop  offset="0.5941" style="stop-color:#F8DA62"/>
			<stop  offset="0.613" style="stop-color:#F6D65D"/>
			<stop  offset="0.6356" style="stop-color:#F2CA51"/>
			<stop  offset="0.6599" style="stop-color:#ECB83F"/>
			<stop  offset="0.6854" style="stop-color:#E39E29"/>
			<stop  offset="0.6907" style="stop-color:#E19926"/>
			<stop  offset="0.6989" style="stop-color:#E3A12F"/>
			<stop  offset="0.714" style="stop-color:#E9B84D"/>
			<stop  offset="0.7245" style="stop-color:#EDCB69"/>
			<stop  offset="0.7827" style="stop-color:#FCF8DF"/>
			<stop  offset="0.8259" style="stop-color:#E6BC4C"/>
			<stop  offset="0.8298" style="stop-color:#E0B045"/>
			<stop  offset="0.8407" style="stop-color:#D59436"/>
			<stop  offset="0.8511" style="stop-color:#CE832E"/>
			<stop  offset="0.8606" style="stop-color:#CA792A"/>
			<stop  offset="0.8684" style="stop-color:#C87529"/>
			<stop  offset="0.8905" style="stop-color:#935226"/>
			<stop  offset="0.9139" style="stop-color:#66331C"/>
			<stop  offset="0.9313" style="stop-color:#4E2113"/>
			<stop  offset="0.9406" style="stop-color:#45190E"/>
			<stop  offset="0.9764" style="stop-color:#E9C055"/>
			<stop  offset="1" style="stop-color:#FDF2A6"/>
		</linearGradient>
		
			<path style="fill:url(#SVGID_1_);stroke:url(#SVGID_00000147214539790515419380000011386393499338056083_);stroke-width:0.75;stroke-miterlimit:10;" d="
			M543.9,682c0,0.1-0.1,0.1-0.1,0.2c0-0.1,0-0.1,0-0.2C544.2,681.3,544.3,681.4,543.9,682z"/>
		
			<linearGradient id="SVGID_00000182507297865127226170000017875510628377891713_" gradientUnits="userSpaceOnUse" x1="1458.1627" y1="681.849" x2="1458.5099" y2="681.849">
			<stop  offset="0" style="stop-color:#EAC259"/>
			<stop  offset="1.058440e-02" style="stop-color:#B98B42"/>
			<stop  offset="3.433857e-02" style="stop-color:#5E2A13"/>
			<stop  offset="3.550710e-02" style="stop-color:#5A2611"/>
			<stop  offset="4.028317e-02" style="stop-color:#602C14"/>
			<stop  offset="4.765279e-02" style="stop-color:#703E1E"/>
			<stop  offset="5.669554e-02" style="stop-color:#8D5D2D"/>
			<stop  offset="6.696689e-02" style="stop-color:#BC8F44"/>
			<stop  offset="7.422220e-02" style="stop-color:#EAC259"/>
			<stop  offset="7.990733e-02" style="stop-color:#ECC762"/>
			<stop  offset="8.943832e-02" style="stop-color:#F1D479"/>
			<stop  offset="0.1016" style="stop-color:#FAE99D"/>
			<stop  offset="0.1063" style="stop-color:#FFF5AE"/>
			<stop  offset="0.1401" style="stop-color:#F9E494"/>
			<stop  offset="0.2127" style="stop-color:#ECC056"/>
			<stop  offset="0.2428" style="stop-color:#E7B139"/>
			<stop  offset="0.2612" style="stop-color:#E9B63F"/>
			<stop  offset="0.2892" style="stop-color:#EEC554"/>
			<stop  offset="0.3148" style="stop-color:#F5D66C"/>
			<stop  offset="0.5941" style="stop-color:#F8DA62"/>
			<stop  offset="0.613" style="stop-color:#F6D65D"/>
			<stop  offset="0.6356" style="stop-color:#F2CA51"/>
			<stop  offset="0.6599" style="stop-color:#ECB83F"/>
			<stop  offset="0.6854" style="stop-color:#E39E29"/>
			<stop  offset="0.6907" style="stop-color:#E19926"/>
			<stop  offset="0.6989" style="stop-color:#E3A12F"/>
			<stop  offset="0.714" style="stop-color:#E9B84D"/>
			<stop  offset="0.7245" style="stop-color:#EDCB69"/>
			<stop  offset="0.8259" style="stop-color:#E6BC4C"/>
			<stop  offset="0.8298" style="stop-color:#E0B045"/>
			<stop  offset="0.8407" style="stop-color:#D59436"/>
			<stop  offset="0.8511" style="stop-color:#CE832E"/>
			<stop  offset="0.8606" style="stop-color:#CA792A"/>
			<stop  offset="0.8684" style="stop-color:#C87529"/>
			<stop  offset="0.8905" style="stop-color:#935226"/>
			<stop  offset="0.9139" style="stop-color:#66331C"/>
			<stop  offset="0.9313" style="stop-color:#4E2113"/>
			<stop  offset="0.9406" style="stop-color:#45190E"/>
			<stop  offset="0.9764" style="stop-color:#E9C055"/>
			<stop  offset="1" style="stop-color:#FDF2A6"/>
		</linearGradient>
		
			<linearGradient id="SVGID_00000046330870076131848460000007632070155304451775_" gradientUnits="userSpaceOnUse" x1="1457.7877" y1="682.2379" x2="1458.9037" y2="682.2379">
			<stop  offset="0" style="stop-color:#EAC259"/>
			<stop  offset="1.058440e-02" style="stop-color:#B98B42"/>
			<stop  offset="3.433857e-02" style="stop-color:#5E2A13"/>
			<stop  offset="3.550710e-02" style="stop-color:#5A2611"/>
			<stop  offset="4.028317e-02" style="stop-color:#602C14"/>
			<stop  offset="4.765279e-02" style="stop-color:#703E1E"/>
			<stop  offset="5.669554e-02" style="stop-color:#8D5D2D"/>
			<stop  offset="6.696689e-02" style="stop-color:#BC8F44"/>
			<stop  offset="7.422220e-02" style="stop-color:#EAC259"/>
			<stop  offset="7.990733e-02" style="stop-color:#ECC762"/>
			<stop  offset="8.943832e-02" style="stop-color:#F1D479"/>
			<stop  offset="0.1016" style="stop-color:#FAE99D"/>
			<stop  offset="0.1063" style="stop-color:#FFF5AE"/>
			<stop  offset="0.1401" style="stop-color:#F9E494"/>
			<stop  offset="0.2127" style="stop-color:#ECC056"/>
			<stop  offset="0.2428" style="stop-color:#E7B139"/>
			<stop  offset="0.2612" style="stop-color:#E9B63F"/>
			<stop  offset="0.2892" style="stop-color:#EEC554"/>
			<stop  offset="0.3148" style="stop-color:#F5D66C"/>
			<stop  offset="0.3309" style="stop-color:#F6D97A"/>
			<stop  offset="0.3627" style="stop-color:#F8E29B"/>
			<stop  offset="0.4065" style="stop-color:#FCF0D2"/>
			<stop  offset="0.4356" style="stop-color:#FFFFFF"/>
			<stop  offset="0.4486" style="stop-color:#FEF9EB"/>
			<stop  offset="0.5006" style="stop-color:#FBEAB1"/>
			<stop  offset="0.5439" style="stop-color:#F9E188"/>
			<stop  offset="0.5763" style="stop-color:#F8DC6D"/>
			<stop  offset="0.5941" style="stop-color:#F8DA62"/>
			<stop  offset="0.613" style="stop-color:#F6D65D"/>
			<stop  offset="0.6356" style="stop-color:#F2CA51"/>
			<stop  offset="0.6599" style="stop-color:#ECB83F"/>
			<stop  offset="0.6854" style="stop-color:#E39E29"/>
			<stop  offset="0.6907" style="stop-color:#E19926"/>
			<stop  offset="0.6989" style="stop-color:#E3A12F"/>
			<stop  offset="0.714" style="stop-color:#E9B84D"/>
			<stop  offset="0.7245" style="stop-color:#EDCB69"/>
			<stop  offset="0.7827" style="stop-color:#FCF8DF"/>
			<stop  offset="0.8259" style="stop-color:#E6BC4C"/>
			<stop  offset="0.8298" style="stop-color:#E0B045"/>
			<stop  offset="0.8407" style="stop-color:#D59436"/>
			<stop  offset="0.8511" style="stop-color:#CE832E"/>
			<stop  offset="0.8606" style="stop-color:#CA792A"/>
			<stop  offset="0.8684" style="stop-color:#C87529"/>
			<stop  offset="0.8905" style="stop-color:#935226"/>
			<stop  offset="0.9139" style="stop-color:#66331C"/>
			<stop  offset="0.9313" style="stop-color:#4E2113"/>
			<stop  offset="0.9406" style="stop-color:#45190E"/>
			<stop  offset="0.9764" style="stop-color:#E9C055"/>
			<stop  offset="1" style="stop-color:#FDF2A6"/>
		</linearGradient>
		
			<path style="fill:url(#SVGID_00000182507297865127226170000017875510628377891713_);stroke:url(#SVGID_00000046330870076131848460000007632070155304451775_);stroke-width:0.75;stroke-miterlimit:10;" d="
			M1458.4,682c0,0.1,0.1,0.1,0.1,0.2c0-0.1,0-0.1,0-0.2C1458.1,681.3,1458.1,681.4,1458.4,682z"/>
		<g>
			<g>
				<path d="M1532,1275.3c-42.5-24-77.4-11-169.4,63.1c-33.1,26.6-81,61.5-137.4,91.5c-10.8,6.1-13.8,27.3-5.3,45.3
					c20.8,44.2,79.9,69.4,112.4,65.3c-20.8-21.1-40-79.4,16.7-109.6c56.6-30.2,105.1-41.7,140.7-54.3c41.4-14.6,62.4-63.8,54.6-93.5
					C1539,1279.9,1534.2,1276.6,1532,1275.3z"/>
			</g>
			<path class="st2" d="M1438,1134.3c0,0-28.3-12.1-78.3,14.1c-97.9,51.2-211.5,168.9-359.7,168.9c-148.2,0-261.8-117.7-359.7-168.9
				c-50-26.2-78.3-14.1-78.3-14.1s-50,66.4-99.9,126.7c50-28.2,90.8-10.1,183.2,64.4c103.8,83.5,234.8,152.9,354.7,152.9
				c119.9,0,251-69.3,354.7-152.9c92.4-74.4,133.2-92.5,183.2-64.4C1488,1200.6,1438,1134.3,1438,1134.3z"/>
			<g>
				<path d="M468,1275.3c42.5-24,77.3-11,169.4,63.1c33.1,26.6,81,61.5,137.4,91.5c10.7,6.1,13.8,27.3,5.3,45.3
					c-20.8,44.2-79.9,69.4-112.4,65.3c20.8-21.1,40-79.4-16.7-109.6c-56.6-30.2-105.1-41.7-140.7-54.3
					c-41.4-14.6-62.4-63.8-54.6-93.5C461,1279.9,465.8,1276.6,468,1275.3z"/>
			</g>
		</g>
	</g>
	<g id="gzEWo0.tif">
		<g>
			<path class="st3" d="M1357.1,758.7c-19.3-11.3-28.9-28.3-32.4-50.5c-5.3-33.3-20-61.7-49-81.4c-16.4-11.1-33.2-10.8-49.1-1.3
				c-21.7,13.2-40.1,30.9-56.9,49.9c-16.6,18.9-23.3,43.1-32.2,66c-12.4,32.4-8.2,62.1,12,90.5c14.1,19.8,26.3,40.8,34.1,64.1
				c8.2,24.7,7.8,49.2-0.8,73.5c-6.8,19.5-26.4,27.6-39.3,41.8c-3.9,4.3-7.4,2.3-8-3.6c-1.1-11.2-5.6-21.4-9.5-31.7
				c-8.9-23.2-23.1-42.5-44.9-55.5c-1.5-0.9-3-1.8-4.4-2.8c-7.8-5.8-10.8-14.3-12.5-23.2c-1.3-6.9,5.8-8.9,9.3-12.7
				c13.4-14.2,26.3-28.6,31.4-48.2c5.6-21.8,5.7-21.9-15.7-21.6c-0.3,0-0.6-0.3-1.1-0.5c1.6-7.1,7-11.7,10.9-17.3
				c15.2-21.2,27.9-43.5,32.9-69.7c6.4-33.5,1.1-66.3-3.9-99.2c-1.6-10.3-3.9-20.7-2.6-31c1.2-9-2.2-11.9-10.2-9.9
				c-7.2,1.8-10.5-1.3-13.7-7.3c-6.9-12.9-15.8-24.4-27.5-33.4c-14.3-11-29.3-21.1-43-32.8c-7.1-6.1-11.4-4.6-16.3,1.3
				c-6.5,7.9-14.6,12.3-24.9,13.3c-9.4,0.9-18.6,3.1-27,7.5c-18.5,9.9-38.3,16.2-58.1,22.6c-7.8,2.5-11.2,7.1-12.2,14.8
				c-2.5,19.1,5.1,35.3,14.5,50.9c2.5,4.2,5.8,4.5,9,0.1c5.3-7.2,13-10.2,21.5-11.3c5.3-0.7,9.6,1.5,12.1,6.3
				c2.4,4.5,1,8.9-1.6,12.7c-7.9,11.6-19.1,12.9-28.8,2.3c-6.1-6.8-8.3-3.4-10.8,2.1c-1.4,3.1-1.9,6.7-3.3,9.9
				c-3.4,8.3-3.7,18.5-10.6,24.6c-6.5,5.8-4.1,6.9,1.9,9.1c13.1,4.8,26.6,4.1,40.1,3.2c8.7-0.6,17.1-4,26.3-2.6
				c-1,3.9-3.6,5.6-6.1,6.2c-15.8,3.8-31.2,9.8-47.9,8.4c-10.8-0.9-20.1-5.1-26.6-14.3c-10.7-15.2-16.9-32.2-16-50.6
				c1.1-22.1,8.5-43.2,13.1-64.7c3.4-16.1,1.8-31.3-4.2-45.8c-4-9.6-11.7-17.2-22.2-20.7c-5.2-1.8-8.1-0.9-6.1,5.9
				c1.7,6,2.7,12.3,2.9,18.5c0.4,10-4.4,14.4-14.5,13.6c-5.9-0.4-11.7-1.3-17.6-1.9c-15.2-1.6-29.7,0.8-43.4,7.6
				c-2.3,1.1-6,1.7-5.5,5.3c0.4,3.2,3.8,3.8,6.4,4.5c9.4,2.4,16.7,8.2,23.9,14.2c1.8,1.5,4.4,3.2,4,5.8c-0.5,3.1-3.8,2.3-6,2.9
				c-9.4,2.4-19,4.4-27.8,8.6c-2.8,1.3-6.8,1.7-7.4,5.1c-0.9,4.2,3.8,4.1,6.2,5.7c16,10,17.9,19.8,5.3,33.7c-3.6,4-3.4,6.7-1.4,10.9
				c3.9,8.2,6,17.7,0.1,24.8c-9,10.8-2.4,16.9,5,22.3c8.4,6,11.2,12.2,6.4,21.9c-1.9,3.7-3.3,11.8-0.6,12.4
				c13,3.1,3.8,10.7,3.9,15.9c0.1,3.6-2,7.3-2.9,11c-0.9,3.8-0.6,6.4,4.6,7c11,1.5,10.9,1.9,4.3,10.4c-7.6,9.7-6.3,14.5,5.4,19.3
				c2.6,1,5.4,1.5,7.9,2.6c2.1,0.9,3.6,2.5,2.1,4.8c-4.9,7.5-9.5,15.5-19.5,17.4c-6.8,1.3-13.6,2.6-20.4,4.2
				c-29.2,6.9-57.2,15.6-71.9,45.6c-1.4,2.8-4,5.2-2.5,8.5c1.5,3.3,4.7,2.1,7.4,2.2c13.1,0.5,13.2,0.9,7.3,12.9
				c-5.2,10.6-10.2,21.3-13.4,32.7c-0.7,2.4-1.1,5.2,0.9,6.9c2.5,2.1,4.4-0.3,6.2-1.8c4.6-3.9,10.5-5.3,15.9-7.5
				c10.2-4.1,10.8-3.4,9.9,7.9c-0.3,3.8-0.3,7.6,0.1,11.4c0.9,9.2,4,10.4,11.7,5c22.2-15.5,44.6-30.7,71-38.3
				c15.1-4.4,31-7.6,45.8-0.6c19.6,9.2,39.7,16.3,60.9,20.6c2.4,0.5,6.6-0.3,6.9,3.1c0.3,3.5-3.6,4.5-6.3,6
				c-12.4,6.9-26.1,11.5-37.2,20.7c-22,18.2-34.9,49.4-1.4,70.2c6.8,4.2,5.6,8.9,1.6,13.7c-3.5,4.3-7.6,8.1-12.7,10.6
				c-20.9,10.3-42.3,18.7-65.3,23.4c-23.5,4.8-47.1,11.9-66.1,26.5c-17.4,13.4-22.7,29.7-11.3,44.5c2.9-4,5.4-8.3,8.7-11.7
				c3.4-3.5,6.7-10.2,12.4-7.2c4.5,2.4,0.4,8.2-0.1,12.4c-0.5,4.4-1.9,8.8-2.9,13.2c-2.4,9.6-2.8,19.3-0.4,28.9
				c1.2,4.7,3.1,10.4,8.2,11.1c4.7,0.6,5.2-5.5,7.5-8.7c9-12.6,18.7-24.4,36.1-29.5c-5.1,12.2-11.3,22.6-9.4,34.8
				c0.7,4.3,1.1,9.2,7.5,3.9c7.7-6.3,17.2-8.6,26.7-10.9c16.1-4,33.1-5.3,48.1-12.9c37.3-18.8,72-41.4,102.2-70.7
				c11.5-11.1,13.8-25.4,5-39.7c-3.2-5.1-3-8.4,0.6-12.8c5-6.2,11-4.6,17.1-3c5.4,1.4,6.1,5.1,6,10.3c-0.3,15.2,1,30.6,0,45.7
				c-1.4,20.4,8.3,34.6,23.3,46.1c15.9,12.2,35.1,14,54.1,15.3c3.9,0.3,6.6,0.6,5.7,4.6c-3.8,16.6-6.9,33.6-24.4,42.6
				c-13.9,7.1-27.4,14.9-41.3,22.1c-22.5,11.5-40.9,27.2-52.9,49.8c-1.9,3.6-4,7.5-3.7,11.8c0.4,4.9,2.2,7.4,7.1,3.4
				c10.2-8.3,22.9-11.2,34.5-16.3c8.5-3.8,13.5-2.2,14.5,8.1c0.6,6.6,3.6,9.6,10,4c6.8-6,16-6,24.2-8.6c6.7-2.1,11-1,14.9,5.1
				c4.5,7,10.5,11.7,20,9.2c30.1-7.8,50.3-28,67.6-52.2c15.9-22.2,22.7-48,29.3-73.8c1.5-5.9,3.1-12.8-1-17.1
				c-10.8-11.2-9.6-21.9-1.8-33.6c1.1-1.6,1.2-4,1.8-5.9c2.7-8-0.5-11.8-8.6-12.5c-6-0.5-11.6-2.5-16.8-5.3
				c-3.6-1.9-8.2-4.4-7.1-9.1c1.1-4.9,5.6-7.8,10.7-8.7c2.3-0.4,4.9,0,7.3,0.3c6.4,0.9,11.2-1.3,15.4-6.3
				c7.4-8.9,17.4-14.8,26.5-21.8c5-3.9,10.5-4.9,16.6-2.4c4.1,1.7,8.7,2.4,12.8,4.2c5,2.2,6.7,0.5,7.7-4.4
				c3.4-16.7,0.2-33.3-1.3-49.8c-1.2-13.6-0.6-17,12.1-20.8c7.3-2.2,7.4-5.3,5.3-11.2c-5.1-13.8-6.6-28.3-8.6-42.7
				c-0.6-4.1,0.1-7.5,2-11c3.6-6.6,11.4-16.4,9.4-19.4c-4-6-14.4-2.4-22.1-3.8c-8.4-1.6-13.7-4.8-14.4-14.4
				c-0.6-8.5-3.4-16.9-5.1-25.4c-1-5.1-3.3-6.7-8.8-5.1c-6.7,2-13.8,9-20,4.9c-5.5-3.6-8.1-11.8-11.8-18.1c-1.6-2.7-2.9-5.5-4.4-8.3
				c-13.5-24.1-13.1-49.5-5.2-74.6c4.6-14.8,12.4-28.8,26.5-37.6c13-8.2,26.4-8.3,40.8-3c14.6,5.4,15.6,17,16.3,29.4
				c0.3,4.1,0.6,8.3,1,12.5c1.6,15.7,9.2,26.9,23.3,34.5c15.3,8.3,31.4,10,48.3,9.6c11-0.2,20-4.5,28.1-11.7
				C1362.6,765.8,1364,762.7,1357.1,758.7z M1001.6,573c-8.2-0.7-16.3-1.5-27.3-2.5c7.5-6,13.4-8.6,19.3-10.9
				c5.7-2.3,10.1-0.2,12.8,5.1C1009.1,569.8,1008.8,573.6,1001.6,573z"/>
		</g>
	</g>
	<g>
		<path class="st3" d="M644.1,1197.1c-6.5,2.1-14.9,5.6-25.3,10.4c-9.3,4.4-18.8,8.5-28.4,12.6c-9.2,3.9-17.6,4.9-25.3,2.8
			c-7.8-2-14.4-6.2-19.6-12.4c-3.5-4.1-5.6-8-6.4-11.6c-0.8-3.6-0.4-6,1.2-7.3c0.7-0.6,1.7-0.7,2.8-0.4c1.2,0.3,2.1,0.9,2.9,1.9
			c1.1,1.4,1.8,3.4,1.9,5.9c0.2,3.5,0.7,6,1.3,7.6c0.9,2.2,1.9,4,3.1,5.4c1.3,1.5,2.6,2.5,3.9,3.1c2.2,1.1,4.7,1.5,7.3,1.4
			c2.7-0.1,10.1-2.1,22.1-6.4c10-3.5,20.1-7.6,30.2-12.2c5.5-2.5,10.9-5,16.3-7.5c-0.8-0.8-1.5-1.6-2.2-2.4
			c-5.1-5.2-10.3-8.7-15.7-10.3c-5.4-1.7-9.3-1.5-11.6,0.6c-0.8,0.7-1.4,2.1-1.6,4c-0.2,1.8-0.6,2.9-1.2,3.4
			c-0.7,0.6-1.7,0.9-2.8,0.6c-1.2-0.2-2.2-0.8-3.1-1.8c-1.1-1.3-1.6-2.7-1.5-4.3c0.1-1.6,1.1-3.1,2.7-4.6c3.1-2.7,7.3-3.8,12.3-3.3
			c5.1,0.5,10.3,2.5,15.7,5.9c3.6,2.3,8.3,6.4,14.2,12.3C638.3,1191.4,640.5,1193.6,644.1,1197.1z"/>
		<path class="st3" d="M667,1241c1.4,0.7,2.7,1.5,4.1,2.2c-4.3,2.6-8.5,5.2-12.9,7.8c-5.2,3-10.8,6.8-17,11.2
			c-3.4,2.4-5.4,4-6.1,4.9c-0.7,0.9-0.6,1.7,0.3,2.5c0.6,0.5,1.8,1,3.7,1.5c3.3,0.9,6.6,1.4,10.1,1.5c0.2,1.1,0.3,2.1,0.5,3.2
			c-6.8-0.4-11.1-0.9-12.9-1.3c-3.5-0.7-6.7-1.8-9.4-3c-1.8-0.8-3.4-1.8-4.8-3c-1-0.9-1.6-1.7-1.8-2.4c-0.2-0.8,0-1.5,0.5-2.1
			c0.4-0.4,1-0.9,1.9-1.3c2.4-1.3,4.8-2.5,7.2-3.8c-5.7,0.1-11.8-0.7-18.1-2.7c-3.9-1.2-7-2.9-9.3-5c-2.2-2-3.3-4.2-3.4-6.4
			c-0.1-3,0.9-5.6,3.2-8c2.7-2.8,6.8-5,12.1-6.6c5.3-1.6,11-2.3,17-2.1c6,0.2,11.4,1.1,16.4,2.9c3.8,1.4,7.9,4,12.5,7.8
			c1.1,0.9,2.3,2,3.4,3C665.2,1241.5,666.1,1241.2,667,1241z M654.9,1242.2c-1.7-1.9-3.2-3.5-4.5-4.6c-3.2-2.7-6.6-4.5-10.2-5.2
			c-3.6-0.7-8-0.3-13.3,1.4c-5.3,1.6-9.6,4.2-12.8,7.7c-1.7,1.9-2.5,3.6-2.4,5.2c0.1,1.6,0.8,3,2.2,4.3c2.6,2.3,6.3,3.8,11.1,4.3
			c4.8,0.5,9.5-0.7,14.3-3.5C644.5,1248.6,649.7,1245.4,654.9,1242.2z"/>
		<path class="st3" d="M687.9,1300.3c-0.2,1.2-0.3,2.4-0.5,3.5c-13.5-0.5-23.8-3.5-30.4-8.3c-3.5-2.6-5.4-5.4-5.6-8.4
			c-0.2-3,0.8-5.9,2.9-8.8c3.6-4.7,8.8-8.2,15.7-10.8c6.9-2.6,13.5-3.6,20-3.1c5,0.4,9.7,2.1,14.2,5.1c2.8,1.9,4.7,3.7,5.6,5.5
			c0.9,1.8,1,3.3,0.2,4.6c-0.6,1-1.5,1.5-2.7,1.6c-1.2,0.1-2.5-0.3-3.9-1.2c-1.4-0.9-2.8-2.5-4.2-4.9c-1.5-2.5-2.9-4.3-4.4-5.3
			c-1.9-1.3-4.2-1.9-7-1.8c-2.8,0.1-6.4,1.4-10.9,4c-4.5,2.6-8.1,5.9-11,9.7c-2.1,2.8-3,5.6-2.6,8.2c0.2,2,1.3,3.7,3.3,5.1
			C671.4,1298.3,678.5,1300.2,687.9,1300.3z"/>
		<path class="st3" d="M744.4,1293.6c3.9,2.1,6.4,5.1,7.7,9c1.3,3.9,0.8,8.2-1.5,12.8c-3.7,7.4-10.3,12.4-20.1,14.6
			c-9.7,2.3-18.5,1.1-25.9-3.2c-4.6-2.7-7.5-6-8.9-9.9c-1.4-3.9-0.8-7.8,1.6-11.6c4.2-6.6,10.4-11.2,18.6-13.9
			C726.2,1288,735.5,1288.8,744.4,1293.6z M737.3,1294.5c-3.4-1.9-7.7-1.8-13.2,0.3c-5.4,2-10.3,6.4-14.4,13.2
			c-2.5,4.1-3.4,8-2.8,11.6c0.5,2.7,2,4.7,4.5,6.2c3.6,2,7.8,2.2,12.6,0.4c6.1-2.4,10.9-6.9,14.4-13.4c2.6-4.9,3.7-8.9,3.2-11.8
			C741.2,1298,739.8,1295.8,737.3,1294.5z"/>
		<path class="st3" d="M778.3,1321.2c4.7-1.5,9-2.3,12.8-2.4c3.8-0.1,7,0.4,9.5,1.4c2.9,1.2,4.8,3,5.9,5.6c1,2.6,0.8,5.9-0.7,9.8
			c-2.2,5.7-5.9,10.7-11.4,14.8c-5.5,4.1-11.4,6.6-17.6,7.3c-6.2,0.7-11.8-0.1-16.6-2.2c-4.1-1.8-6.9-4.3-8.5-7.2
			c-1.6-3-1.6-5.9-0.2-8.8c1.1-2.3,3.2-5.2,6.4-8.8c6.7-7.7,13.4-15.4,19.9-23.3c4.8-5.8,9.2-9.8,13.3-12.1c4.1-2.3,8.6-3.6,13.6-4
			c5-0.4,9.3,0.2,13.1,1.6c2.2,0.9,3.7,1.8,4.5,2.9c0.8,1.1,1,2.2,0.5,3.3c-0.4,1-1.2,1.7-2.4,2.1c-1.2,0.3-2.7,0.2-4.5-0.5
			c-1.3-0.5-3.5-1.6-6.5-3.4c-1.3-0.8-2.5-1.4-3.6-1.9c-2-0.8-3.9-0.5-6,0.8c-1.5,1.1-4.3,4.2-8.4,9.3
			C787,1310.7,782.7,1316,778.3,1321.2z M792,1323.3c-2-0.8-4.9-0.9-8.6-0.1c-3.7,0.8-7.9,3.2-12.8,7.1c-4.8,3.9-8.4,8.3-10.7,13.1
			c-0.8,1.8-0.8,3.7,0.2,5.6c1,1.9,2.5,3.3,4.5,4.2c4.9,2.2,10.7,1.1,17-3.4c6.3-4.4,10.6-9.7,13-15.7c1.1-2.7,1.3-5.2,0.6-7.5
			C794.8,1325.2,793.7,1324,792,1323.3z"/>
		<path class="st3" d="M844.6,1335.4c3.8,1.1,6.5,2.6,8.3,4.4c1.7,1.8,2.4,3.5,1.9,5.1c-0.3,1-0.9,1.7-2,2.2
			c-1.1,0.5-2.3,0.5-3.5,0.2c-0.8-0.2-1.5-0.6-2-1.1c-0.5-0.5-1.2-1.5-1.9-3c-1.4-2.9-3.1-4.7-5.2-5.4c-1.8-0.5-3.5-0.5-5.2,0.2
			c-1.7,0.7-2.8,1.8-3.4,3.5c-0.5,1.4-0.5,3-0.1,4.6c0.4,1.6,1.9,4.5,4.5,8.7c3.6,5.7,5,10.4,3.8,14.2c-1.1,3.8-4.1,6.5-9.1,8.1
			c-5,1.6-10.8,1.3-17.3-0.9c-5.5-1.8-9.2-4.1-11.2-6.8c-2-2.6-2.6-5.2-1.6-7.7c0.5-1.2,1.3-2,2.6-2.5c1.3-0.4,2.6-0.4,4.1,0.1
			c1.2,0.4,2.2,1.1,2.9,2.1c0.7,1,0.8,1.9,0.5,2.8c-0.1,0.4-0.3,0.8-0.6,1.3c-0.2,0.4-0.3,0.8-0.5,1.1c-0.4,1.2-0.1,2.4,0.9,3.6
			c0.9,1.2,2.5,2.2,4.6,2.9c2.5,0.8,4.7,1.2,6.8,1.2c2.1-0.1,3.9-0.6,5.3-1.6c1.5-1,2.4-2.2,2.8-3.5c0.4-1.3,0.3-2.7-0.3-4.3
			c-0.6-1.6-2.1-4.4-4.4-8.4c-3.3-5.6-4.2-10.3-2.9-14c1.2-3.4,3.9-5.9,8.1-7.3C834.8,1333.8,839.4,1333.8,844.6,1335.4z"/>
		<path class="st3" d="M953.7,1360.6c-1.2-0.1-2.4-0.2-3.6-0.3c0.5-2.9,0.8-5.2,1-6.9c0.5-5.2-0.5-9-2.7-11.3
			c-2.3-2.3-5.3-3.6-9.1-4.1c-5-0.6-10.5,0.5-16.5,3.2c-6,2.7-11.6,7.5-17,14.2c-5.4,6.8-8.9,14-10.4,21.9
			c-1.4,7.6-0.6,13.9,2.7,18.7c3.3,4.8,8.1,7.7,14.3,8.6c8.4,1.3,16.7-1.6,24.4-8.6c0.8-0.7,1.6-1,2.3-0.9c0.6,0.1,1.1,0.3,1.5,0.6
			c0.4,0.4,0.6,0.7,0.5,1.1c-0.1,1-1.9,2.8-5.4,5.4c-3.5,2.6-7.8,4.5-12.9,5.8c-5.1,1.3-10.1,1.6-14.8,0.8
			c-5.7-0.9-10.8-2.9-15.2-6.1c-4.4-3.1-7.5-7.1-9.3-11.8c-1.8-4.7-2-9.9-0.8-15.6c1.7-8,6-15.3,12.6-22.2
			c6.6-6.9,13.8-11.9,21.8-15.1c8-3.2,15.3-4.4,22.2-3.6c2.5,0.3,4.9,0.8,7.3,1.5c1,0.3,5.2,2.1,12.8,5
			C956.5,1347.4,954.6,1353.8,953.7,1360.6z"/>
		<path class="st3" d="M1010.8,1393.2c0.6,0.7,1.2,1.3,1.9,2c-4.2,3.9-8.7,6.9-13.4,9.2c-3.2,1.5-5.8,2.3-7.9,2.2
			c-1.7,0-3-0.6-4-1.6c-1-1.1-1.5-2.7-1.4-4.9c0-1.5,0.5-3.6,1.3-6.5c0.8-2.8,3.2-8.9,6.8-18.2c1.6-4.6,2.4-7.3,2.4-8.1
			c0-1.2-0.8-1.8-2.3-1.8c-1.9,0-4.2,0.7-7.1,2.2c-4,2.1-7.6,4.7-10.9,7.9c-2.1,2-3.8,5.1-5.2,9.3c-2.2,6.4-4.4,12.8-6.7,19.1
			c-3.6-0.2-7.1-0.5-10.7-0.7c2.8-6.3,4.9-11.5,6.4-15.5c4.3-11.6,8.3-23.3,12.1-35.1c2.1-6.5,4.6-11.5,7.5-14.9
			c2.9-3.5,6.6-6.2,11-8.2c4.4-2,8.7-3.1,13-3.1c1.8,0,3.2,0.4,4.2,1.1c1,0.8,1.6,1.8,1.6,3c0,1-0.5,1.9-1.5,2.7
			c-1,0.8-2.4,1.2-4.2,1.2c-1,0-2.3-0.1-3.9-0.3c-3.6-0.5-6.1-0.7-7.5-0.8c-1.9,0-3.5,0.6-4.8,2c-1.3,1.4-2.6,4.6-4.1,9.6
			c-2.7,9.1-5.5,18.2-8.4,27.2c5.6-4.4,11.5-8.1,17.7-11.2c3.7-1.8,6.6-2.8,8.8-2.8c1.7,0,3.1,0.4,4,1.3c1,0.8,1.5,2,1.5,3.5
			c0,1.3-0.1,2.5-0.5,3.8c-0.6,2.2-1.9,6.2-4,12c-2.9,8-4.8,12.9-5.3,14.8c-0.6,1.9-0.8,3.7-0.8,5.2c0,0.6,0.1,1,0.4,1.3
			c0.3,0.3,0.6,0.4,1.2,0.5c1.1,0,3.3-1,6.4-3.2C1006.3,1396.2,1008.4,1394.8,1010.8,1393.2z"/>
		<path class="st3" d="M1019.2,1370.8c-1-0.6-2-1.2-3-1.8c4.4-4.2,8.3-7.3,11.8-9.2c3.6-1.9,6.6-3,9.1-3.1c1.4-0.1,2.5,0.1,3.3,0.5
			c0.8,0.5,1.2,1.1,1.3,2c0.1,1.1-1,5.7-3.3,14c-3.9,13.5-6,21.5-5.8,24.3c0,0.5,0.2,0.9,0.6,1.3c0.4,0.3,0.7,0.5,1.1,0.5
			c1.5-0.1,5.3-2.6,11.1-7.7c1,0.6,1.9,1.3,2.9,1.9c-6,5.3-10.6,8.7-13.6,10.2c-2.9,1.5-5.4,2.3-7.3,2.4c-1.7,0.1-3-0.3-4-1.1
			c-1-0.8-1.5-1.9-1.6-3.3c-0.2-4.6,3.1-16.1,8.8-34.5c0.3-0.9,0.4-1.6,0.3-2.3c0-0.7-0.5-1.1-1.3-1c-0.9,0-1.9,0.4-3,1
			C1025.5,1365.5,1023,1367.5,1019.2,1370.8z M1042.7,1332.5c1.3-0.1,2.4,0.2,3.3,0.9c0.9,0.7,1.4,1.6,1.5,2.8
			c0.2,1.6-0.4,3.1-1.6,4.5c-1.2,1.4-2.6,2.1-4.2,2.2c-1.3,0.1-2.4-0.2-3.3-0.9c-0.9-0.7-1.4-1.7-1.5-3c-0.1-1.7,0.4-3.1,1.5-4.4
			C1039.6,1333.3,1041,1332.7,1042.7,1332.5z"/>
		<path class="st3" d="M1066.5,1401.3c-3.5,0.4-7.1,0.8-10.7,1.1c1.2-5.1,2.3-10.3,3.4-15.4c1.6-7.6,2.8-14.7,3.8-21.5
			c0.2-1.7,0.3-2.7,0.2-3.1c-0.1-0.9-0.6-1.3-1.6-1.2c-0.7,0.1-1.6,0.6-2.9,1.5c-1.3,0.9-3.6,3-6.9,6.4c-0.8-0.6-1.5-1.2-2.3-1.7
			c4-4.2,7.9-7.5,11.9-9.9c4-2.4,7.1-3.7,9.3-4c0.8-0.1,1.4,0,1.9,0.2c0.5,0.3,0.8,0.6,0.9,1.1c0.1,0.5,0,1.8-0.3,3.9
			c-0.5,3.4-1,6.9-1.6,10.3c3.8-6.5,8.1-12.2,13-17.2c2.3-2.4,4.4-3.8,6.2-4.1c1.3-0.2,2.4-0.1,3.4,0.5c1,0.6,1.6,1.3,1.8,2.3
			c0.2,1-0.1,1.9-0.8,2.8c-0.7,0.8-2.7,2.1-6,3.6c-3.1,1.5-5.6,3-7.5,4.6c-1.9,1.6-3.8,3.9-6,6.9c-2.1,3-3.6,5.5-4.3,7.6
			c-0.8,2.1-1.7,6.9-2.9,14.3C1067.8,1393.9,1067.2,1397.6,1066.5,1401.3z"/>
		<path class="st3" d="M1121.5,1344.4c4.2-1,8.1-0.4,11.6,1.7c3.5,2.1,6,5.6,7.3,10.6c2.1,8,0.5,16.1-5.1,24.2
			c-5.6,8.1-12.8,13-21,14.7c-5.1,1-9.4,0.5-12.9-1.5c-3.5-2-5.7-5.3-6.4-9.7c-1.3-7.7,0.3-15.2,4.4-22.7
			C1104.6,1352.2,1111.8,1346.6,1121.5,1344.4z M1116.9,1349.7c-3.7,0.8-6.8,3.8-9.4,8.9c-2.6,5.1-3.3,11.6-1.8,19.4
			c0.9,4.7,2.7,8.3,5.6,10.6c2.1,1.7,4.5,2.2,7.3,1.6c3.9-0.8,7.1-3.5,9.4-8c2.9-5.8,3.5-12.4,1.7-19.6c-1.3-5.4-3.1-9.1-5.4-11
			C1122,1349.8,1119.6,1349.1,1116.9,1349.7z"/>
		<path class="st3" d="M1147,1352.2c-1.1-0.5-2.1-1-3.2-1.4c2.9-5,6-9,9.3-11.9c3.3-3,6.3-4.9,9.1-5.8c1.1-0.3,2-0.4,2.7-0.1
			c0.8,0.2,1.3,0.8,1.6,1.6c0.3,1,0.5,2.1,0.6,3.3c0.1,1.2,0,4-0.1,8.5c4.9-7.5,8.2-12.4,10.1-14.4c3.2-3.5,6.4-5.9,9.7-7.1
			c2.1-0.8,4.2-0.6,6.3,0.5c2.1,1.1,3.8,3.3,5.1,6.7c3.3,8.4,3.2,17.6-0.8,27.7c-3.9,10.1-10.3,16.6-18.8,19.3
			c-3.3,1.1-6.9,1.4-10.6,1c-0.2,6.5-0.5,12.9-0.8,19.4c-0.1,1.2,0,2.1,0.2,2.8c0.4,1.3,1.3,2.1,2.8,2.3c2.3,0.3,6.9-0.3,13.7-1.8
			c0,1-0.1,2-0.1,3c-7.9,2-14.1,3.5-18.6,4.8c-4.6,1.3-10.6,3.1-17.8,5.4c0.1-1,0.2-2,0.3-2.9c3.6-1.2,6.1-2.7,7.5-4.3
			c1.3-1.7,2.1-4.2,2.3-7.6c0.6-14.8,0.9-29.5,0.9-44.2c0-8.2-0.2-12.7-0.4-13.6c-0.3-0.9-1-1.2-2-0.9
			C1154,1342.7,1151.1,1346,1147,1352.2z M1167.9,1373.5c4.5,1.7,8.6,1.9,12.4,0.7c5.5-1.8,9.2-6.7,10.9-14.7c1.7-8,1.3-15.1-1-21.3
			c-0.7-2-1.8-3.3-3.3-3.9c-1.5-0.6-3.1-0.6-4.9,0c-2,0.7-4,2.3-6,4.9c-3.1,3.9-5.3,7.5-6.7,10.7c-0.9,2.3-1.4,6-1.3,10.9
			C1168,1365,1168,1369.3,1167.9,1373.5z"/>
		<path class="st3" d="M1229.2,1358.4c-3.3,1.4-6.7,2.8-10,4.2c-0.3-5.3-0.7-10.5-1.1-15.8c-0.6-7.7-1.4-15-2.5-21.7
			c-0.3-1.7-0.5-2.7-0.6-3.1c-0.4-0.8-1-1-1.9-0.6c-0.6,0.3-1.4,1-2.4,2.3c-1,1.2-2.6,4-4.9,8.1c-0.9-0.3-1.8-0.7-2.7-1
			c2.6-5.2,5.5-9.5,8.7-12.9c3.2-3.4,5.8-5.6,7.9-6.6c0.7-0.3,1.4-0.4,1.9-0.4c0.6,0.1,0.9,0.4,1.1,0.8c0.2,0.4,0.5,1.7,0.8,3.9
			c0.5,3.4,1,6.9,1.4,10.4c1.8-7.3,4.4-14.1,7.7-20.4c1.6-3,3.2-4.9,4.8-5.7c1.2-0.6,2.4-0.8,3.5-0.5c1.1,0.2,1.9,0.8,2.4,1.6
			c0.5,0.9,0.5,1.9,0,2.9c-0.5,1-2.1,2.8-4.8,5.2c-2.6,2.3-4.6,4.5-6,6.6c-1.4,2.1-2.6,4.9-3.8,8.4c-1.2,3.5-1.9,6.4-2,8.6
			c-0.1,2.2,0.3,7.1,1.2,14.6C1228.3,1350.9,1228.8,1354.6,1229.2,1358.4z"/>
		<path class="st3" d="M1276.9,1280.2c1.1-1,2.3-2,3.4-3c1,4.9,2,9.8,3,14.7c1.1,5.9,2.7,12.5,4.8,19.7c1.1,4,1.9,6.4,2.5,7.4
			c0.6,1,1.4,1.2,2.5,0.6c0.7-0.4,1.5-1.4,2.6-2.9c1.9-2.7,3.5-5.7,4.7-8.9c1,0.2,2.1,0.4,3.1,0.6c-2.6,6.2-4.5,10.1-5.4,11.6
			c-1.8,3-3.8,5.6-5.9,7.7c-1.4,1.4-2.8,2.5-4.4,3.4c-1.1,0.6-2.1,0.9-2.8,0.8c-0.8-0.1-1.4-0.5-1.8-1.2c-0.3-0.5-0.5-1.2-0.6-2.3
			c-0.4-2.7-0.8-5.4-1.2-8c-1.7,5.4-4.5,10.7-8.3,15.8c-2.4,3.2-4.9,5.5-7.5,6.8c-2.5,1.3-4.8,1.6-6.9,0.9c-2.7-0.9-4.8-2.9-6.3-5.8
			c-1.7-3.5-2.4-8.1-2.2-13.6c0.2-5.5,1.4-11,3.4-16.5c2-5.5,4.7-10.2,7.9-14.2c2.5-3,6.3-6,11.2-8.9c1.2-0.7,2.6-1.4,3.9-2.1
			C1276.7,1282,1276.8,1281.1,1276.9,1280.2z M1273.9,1291.9c-2.3,0.9-4.3,1.8-5.7,2.6c-3.6,2-6.3,4.6-8.1,7.7
			c-1.8,3.1-2.8,7.3-3,12.8c-0.2,5.5,0.8,10.3,3,14.6c1.2,2.2,2.5,3.6,4,4.1c1.5,0.5,3,0.3,4.6-0.5c3-1.6,5.5-4.5,7.5-8.8
			c2-4.3,2.5-9.1,1.4-14.5C1276.5,1303.8,1275.2,1297.8,1273.9,1291.9z"/>
		<path class="st3" d="M1339.4,1281.2c1.1,0.6,2.1,1.1,3.2,1.7c-5.2,12.6-11.6,21.2-18.3,25.8c-3.6,2.4-6.9,3.2-9.8,2.3
			c-2.9-0.9-5.3-2.8-7.2-5.8c-3.2-5-4.7-11.1-4.8-18.5c-0.1-7.4,1.2-13.9,3.9-19.8c2.1-4.6,5.3-8.4,9.7-11.6c2.7-2,5.1-3.1,7.1-3.4
			c2-0.2,3.5,0.2,4.4,1.4c0.7,0.9,0.9,1.9,0.6,3.1c-0.3,1.1-1.1,2.2-2.5,3.2c-1.3,1-3.4,1.8-6.1,2.3c-2.9,0.5-5,1.3-6.5,2.3
			c-1.8,1.3-3.2,3.3-4.1,5.9c-0.9,2.6-0.9,6.5,0.1,11.6c0.9,5.1,2.7,9.7,5.3,13.6c2,2.9,4.2,4.7,6.8,5.3c1.9,0.5,3.9,0.1,5.9-1.3
			C1331.8,1296,1336,1290,1339.4,1281.2z"/>
		<path class="st3" d="M1336.4,1228.3c2.1-3.2,4.1-6.4,6.1-9.6c2.2,5,4.3,10,6.4,15.1c3.7-3.2,7.3-6.4,11-9.6
			c0.6,1.2,1.2,2.5,1.8,3.7c-3.7,3.3-7.3,6.5-11.1,9.7c2.5,6.1,4.9,12.2,7.2,18.4c2,5.6,3.7,9.3,5.1,11c0.6,0.8,1.3,1.2,2,1.1
			c0.7,0,1.5-0.3,2.2-1c1.2-1,2.6-3,4.1-6.2c2-4.1,3.7-8.3,4.9-12.5c1.3,0,2.5,0,3.8,0c-4,11.9-7.3,19.5-9.3,22.9
			c-2,3.4-3.9,5.9-5.7,7.3c-1.5,1.2-2.9,1.7-4.4,1.6c-1.5-0.1-2.9-1.1-4.3-2.9c-1.7-2.1-3.4-5.9-5.4-11.4
			c-2.7-7.3-5.4-14.6-8.2-21.9c-2.9,2.4-5.9,4.8-8.9,7.1c-0.5-1.3-1-2.6-1.4-3.9c3-2.3,5.9-4.7,8.8-7.1
			C1339.6,1236.2,1338,1232.2,1336.4,1228.3z"/>
		<path class="st3" d="M1372,1225.6c-1.2,0.3-2.4,0.5-3.6,0.8c0.8-6.2,1.9-11.3,3.5-15.3c1.6-4,3.3-6.9,5.3-8.8
			c1.1-1.1,2.1-1.7,3-1.9c0.9-0.2,1.7,0,2.4,0.6c0.8,0.8,3,5.1,6.4,13c5.7,13,9.2,20.6,11.1,22.5c0.4,0.4,0.8,0.6,1.3,0.6
			c0.5,0,0.9-0.1,1.2-0.4c1.2-1.1,2.6-5.7,3.9-13.7c1.2-0.2,2.4-0.4,3.6-0.6c-1.4,8.3-2.9,14.1-4.3,17.3c-1.4,3.2-2.8,5.5-4.3,7
			c-1.3,1.2-2.6,1.9-3.9,2c-1.3,0.1-2.5-0.4-3.5-1.4c-3.2-3.4-8-14.4-15.4-32.4c-0.4-0.8-0.8-1.5-1.2-2c-0.5-0.5-1.1-0.5-1.7,0.1
			c-0.7,0.7-1.3,1.6-1.7,2.9C1373.6,1217.1,1372.9,1220.3,1372,1225.6z M1365.9,1179.9c1-1,2.1-1.6,3.2-1.7c1.2-0.1,2.2,0.2,3.1,1
			c1.2,1.1,1.7,2.6,1.7,4.5c-0.1,1.9-0.7,3.5-2,4.7c-1,1-2.1,1.5-3.3,1.6c-1.2,0.1-2.2-0.3-3.1-1.2c-1.2-1.2-1.7-2.7-1.6-4.4
			C1364,1182.7,1364.7,1181.2,1365.9,1179.9z"/>
		<path class="st3" d="M1439.4,1185.8c1.2,0.3,2.4,0.5,3.5,0.8c-2.5,14-6.9,24.2-12.6,30.5c-3.1,3.4-6.1,5-9.2,4.9
			c-3.1-0.1-5.9-1.4-8.4-3.8c-4.2-4.1-7.1-9.8-8.8-17c-1.7-7.3-1.9-14.1-0.5-20.7c1.1-5.1,3.4-9.8,7.1-14.2c2.3-2.7,4.4-4.5,6.4-5.3
			c2-0.8,3.5-0.7,4.7,0.2c0.9,0.7,1.3,1.7,1.3,2.9c-0.1,1.2-0.6,2.5-1.8,3.9c-1.1,1.3-3,2.7-5.6,4c-2.8,1.3-4.7,2.7-5.9,4.1
			c-1.6,1.8-2.5,4.1-2.8,7c-0.3,2.9,0.6,6.7,2.6,11.5c2.1,4.8,4.8,8.8,8.3,12.1c2.6,2.4,5.2,3.5,7.9,3.4c2,0,3.9-1,5.6-2.9
			C1435.1,1202.6,1438,1195.4,1439.4,1185.8z"/>
	</g>
</g>
</svg>
